#!OML:ASF X:\für Bonn\!DataBase\2005_08_12_Daniel\c3d\Daniel.ASF
:FULLY-SPECIFIED
:DEGREES
110
root 0.0165069 14.8679 1.81665 185.502 -9.01856 -185.848
lowerback 79.1696 -6.88166 18.3275
upperback 9.96265 -2.02767 -2.4395
thorax -8.28916 -3.67431 -8.33684
lowerneck 2.95613 -8.31771 -0.957645
upperneck 5.7542 -11.4447 3.92864
head 1.61034 -5.66659 1.29887
rclavicle 8.26944e-014 9.74045e-015
rhumerus 214.81 -166.979 -250.556
rradius 13.8313
rwrist 2.51333
rhand -20.508 12.3713
rfingers 7.12502
rthumb 5.84935 -17.5279
lclavicle 8.26944e-014 9.74045e-015
lhumerus -23.2288 -9.26246 91.2962
lradius 53.869
lwrist 5.34454
lhand -11.8356 -8.41912
lfingers 7.12502
lthumb 14.2154 21.0744
rfemur -57.5895 -7.49666 11.8466
rtibia 80.2744
rfoot -27.7064 -3.24042
rtoes -13.6556
lfemur -58.8203 -4.38141 -23.885
ltibia 79.1871
lfoot -24.1211 -11.5034
ltoes -7.18288
111
root 0.0123122 14.7734 1.80838 185.43 -9.02706 -186.02
lowerback 79.4937 -7.05429 18.4361
upperback 9.94082 -2.09616 -2.42595
thorax -8.26247 -3.71421 -8.3132
lowerneck 2.88494 -8.35028 -1.00327
upperneck 5.82621 -11.4942 3.86845
head 1.64573 -5.69156 1.28187
rclavicle -9.22361e-014 -3.57812e-014
rhumerus 215.173 -166.721 -250.296
rradius 13.8219
rwrist 3.02361
rhand -20.8125 12.3602
rfingers 7.12502
rthumb 5.55535 -17.5469
lclavicle -9.22361e-014 -3.57812e-014
lhumerus -23.3854 -9.57155 91.3509
lradius 53.9729
lwrist 5.3656
lhand -11.8846 -8.46335
lfingers 7.12502
lthumb 14.1682 21.0335
rfemur -58.2749 -7.60882 11.6401
rtibia 81.5373
rfoot -28.0813 -3.1582
rtoes -13.9066
lfemur -59.3902 -4.3366 -24.1068
ltibia 80.2857
lfoot -24.5389 -11.6044
ltoes -7.08292
112
root 0.008198 14.6785 1.79935 185.351 -9.03111 -186.213
lowerback 79.8221 -7.2184 18.5308
upperback 9.91053 -2.16011 -2.40734
thorax -8.2454 -3.75351 -8.27972
lowerneck 2.78569 -8.39343 -1.06033
upperneck 5.92217 -11.5597 3.79584
head 1.69397 -5.72444 1.2607
rclavicle -6.36111e-014 -1.51076e-014
rhumerus 215.466 -166.569 -249.932
rradius 13.8603
rwrist 3.344
rhand -21.1436 12.3343
rfingers 7.12502
rthumb 5.2357 -17.581
lclavicle -6.36111e-014 -1.51076e-014
lhumerus -23.538 -9.88774 91.4285
lradius 54.0661
lwrist 5.38942
lhand -11.8625 -8.46475
lfingers 7.12502
lthumb 14.1895 21.0306
rfemur -58.94 -7.72277 11.4086
rtibia 82.7851
rfoot -28.472 -3.09065
rtoes -14.1303
lfemur -59.9521 -4.28158 -24.3473
ltibia 81.3823
lfoot -24.9353 -11.7084
ltoes -6.98356
113
root 0.00382589 14.5807 1.78854 185.287 -9.04161 -186.367
lowerback 80.1323 -7.38897 18.629
upperback 9.86487 -2.21991 -2.39339
thorax -8.24751 -3.78994 -8.25443
lowerneck 2.6768 -8.42932 -1.13782
upperneck 6.06112 -11.6197 3.72753
head 1.7593 -5.75481 1.24264
rclavicle -6.99722e-014 2.5842e-015
rhumerus 215.764 -166.421 -249.614
rradius 13.8939
rwrist 3.64416
rhand -21.4646 12.2619
rfingers 7.12502
rthumb 4.92575 -17.6609
lclavicle -6.99722e-014 2.5842e-015
lhumerus -23.7104 -10.1838 91.4921
lradius 54.1758
lwrist 5.41514
lhand -11.8921 -8.51311
lfingers 7.12502
lthumb 14.161 20.9843
rfemur -59.6418 -7.86842 11.2368
rtibia 84.0498
rfoot -28.8456 -3.04033
rtoes -14.5112
lfemur -60.5443 -4.21013 -24.5473
ltibia 82.4931
lfoot -25.3435 -11.8571
ltoes -6.80126
114
root -0.00118288 14.4832 1.77762 185.205 -9.06697 -186.541
lowerback 80.4042 -7.57792 18.7373
upperback 9.84906 -2.31066 -2.39174
thorax -8.2219 -3.83603 -8.23723
lowerneck 2.56617 -8.45788 -1.1777
upperneck 6.17746 -11.6662 3.66254
head 1.81519 -5.77771 1.22019
rclavicle -3.49861e-014 -6.06293e-014
rhumerus 216.072 -166.236 -249.363
rradius 13.9064
rwrist 4.05416
rhand -21.8343 12.2162
rfingers 7.12502
rthumb 4.56881 -17.7145
lclavicle -3.49861e-014 -6.06293e-014
lhumerus -23.8686 -10.5177 91.5502
lradius 54.3054
lwrist 5.46343
lhand -11.9443 -8.50994
lfingers 7.12502
lthumb 14.1106 20.9909
rfemur -60.308 -8.03289 11.0295
rtibia 85.3047
rfoot -29.2398 -2.94635
rtoes -14.7624
lfemur -61.1089 -4.14246 -24.7746
ltibia 83.6049
lfoot -25.7517 -11.9838
ltoes -6.63126
115
root -0.00607538 14.3846 1.76508 185.123 -9.08472 -186.699
lowerback 80.6635 -7.73997 18.8353
upperback 9.80408 -2.36206 -2.37143
thorax -8.2273 -3.8686 -8.20934
lowerneck 2.5448 -8.497 -1.27689
upperneck 6.27655 -11.7303 3.62621
head 1.85677 -5.81202 1.22027
rclavicle -3.18055e-014 -1.03368e-014
rhumerus 216.31 -166.054 -249.091
rradius 13.9187
rwrist 4.42571
rhand -22.2179 12.1308
rfingers 7.12502
rthumb 4.19838 -17.8076
lclavicle -3.18055e-014 -1.03368e-014
lhumerus -24.0496 -10.8232 91.6469
lradius 54.356
lwrist 5.46521
lhand -11.974 -8.60196
lfingers 7.12502
lthumb 14.0821 20.9009
rfemur -60.9756 -8.19042 10.8378
rtibia 86.558
rfoot -29.6186 -2.85636
rtoes -14.9415
lfemur -61.6761 -4.05092 -24.9906
ltibia 84.7156
lfoot -26.146 -12.1508
ltoes -6.44467
116
root -0.0112029 14.2835 1.75295 185.049 -9.10381 -186.855
lowerback 80.8463 -7.88006 18.9267
upperback 9.79866 -2.42097 -2.34761
thorax -8.19769 -3.90162 -8.17711
lowerneck 2.51992 -8.53744 -1.33994
upperneck 6.3655 -11.7935 3.57039
head 1.89194 -5.84541 1.20861
rclavicle -3.81667e-014 -9.14409e-015
rhumerus 216.54 -165.998 -248.717
rradius 13.9373
rwrist 4.67833
rhand -22.6055 12.0195
rfingers 7.12502
rthumb 3.82408 -17.926
lclavicle -3.81667e-014 -9.14409e-015
lhumerus -24.2313 -11.1435 91.7312
lradius 54.4556
lwrist 5.49785
lhand -12.0666 -8.61586
lfingers 7.12502
lthumb 13.9929 20.8932
rfemur -61.6686 -8.37579 10.6548
rtibia 87.8162
rfoot -29.9674 -2.75089
rtoes -15.1149
lfemur -62.2745 -3.92781 -25.2105
ltibia 85.8468
lfoot -26.5408 -12.3227
ltoes -6.28667
117
root -0.0167742 14.1823 1.73929 184.953 -9.11242 -187.013
lowerback 80.9789 -7.99688 18.9974
upperback 9.83732 -2.50409 -2.33241
thorax -8.12964 -3.94293 -8.14278
lowerneck 2.49034 -8.55617 -1.36
upperneck 6.45811 -11.8259 3.51581
head 1.9255 -5.86242 1.1907
rclavicle 6.36111e-014 -9.74045e-015
rhumerus 216.862 -165.856 -248.522
rradius 13.886
rwrist 4.99582
rhand -23.0158 11.9694
rfingers 7.12502
rthumb 3.42788 -17.9827
lclavicle 6.36111e-014 -9.74045e-015
lhumerus -24.3651 -11.4223 91.7681
lradius 54.5025
lwrist 5.50151
lhand -12.1076 -8.70516
lfingers 7.12502
lthumb 13.9533 20.8066
rfemur -62.3266 -8.55955 10.4639
rtibia 89.0668
rfoot -30.3406 -2.6294
rtoes -15.2422
lfemur -62.8356 -3.79843 -25.4356
ltibia 86.9731
lfoot -26.9569 -12.4789
ltoes -6.11131
118
root -0.0215624 14.0812 1.72533 184.88 -9.13773 -187.155
lowerback 81.09 -8.10882 19.0646
upperback 9.84098 -2.56277 -2.30861
thorax -8.10279 -3.97442 -8.10567
lowerneck 2.55408 -8.5859 -1.37817
upperneck 6.51482 -11.8722 3.44855
head 1.93071 -5.8885 1.17363
rclavicle -5.40694e-014 -2.04748e-014
rhumerus 217.047 -165.772 -248.273
rradius 13.8748
rwrist 5.32267
rhand -23.537 11.8928
rfingers 7.12502
rthumb 2.92449 -18.0669
lclavicle -5.40694e-014 -2.04748e-014
lhumerus -24.5578 -11.717 91.8332
lradius 54.5458
lwrist 5.50883
lhand -12.1499 -8.79109
lfingers 7.12502
lthumb 13.9125 20.7235
rfemur -63.0114 -8.75866 10.3057
rtibia 90.3034
rfoot -30.6611 -2.55987
rtoes -15.5049
lfemur -63.4267 -3.66281 -25.6423
ltibia 88.0941
lfoot -27.368 -12.6623
ltoes -6.0339
119
root -0.0269753 13.979 1.71131 184.786 -9.1661 -187.31
lowerback 81.1618 -8.19856 19.1184
upperback 9.87527 -2.62936 -2.2687
thorax -8.04671 -4.01104 -8.04434
lowerneck 2.67561 -8.60326 -1.38746
upperneck 6.52311 -11.8991 3.39315
head 1.90992 -5.90572 1.16313
rclavicle -7.63333e-014 -1.90833e-014
rhumerus 217.306 -165.598 -248.158
rradius 13.7785
rwrist 5.80292
rhand -24.1367 11.8968
rfingers 7.12502
rthumb 2.34537 -18.07
lclavicle -7.63333e-014 -1.90833e-014
lhumerus -24.6626 -12.004 91.904
lradius 54.508
lwrist 5.63154
lhand -12.205 -8.89454
lfingers 7.12502
lthumb 13.8595 20.6237
rfemur -63.6769 -8.98121 10.1283
rtibia 91.5448
rfoot -30.999 -2.46535
rtoes -15.7064
lfemur -63.9796 -3.53476 -25.8664
ltibia 89.1996
lfoot -27.7448 -12.8378
ltoes -5.79354
120
root -0.0331933 13.8796 1.69719 184.688 -9.18827 -187.449
lowerback 81.2482 -8.29725 19.1695
upperback 9.87738 -2.69062 -2.23968
thorax -8.02741 -4.04562 -7.99485
lowerneck 2.83292 -8.62296 -1.39638
upperneck 6.54306 -11.9308 3.31782
head 1.88549 -5.92655 1.14783
rclavicle 2.8625e-014 1.74931e-014
rhumerus 217.582 -165.252 -248.225
rradius 13.6119
rwrist 6.60042
rhand -24.8015 11.9219
rfingers 7.12502
rthumb 1.70328 -18.051
lclavicle 2.8625e-014 1.74931e-014
lhumerus -24.8201 -12.2436 91.9781
lradius 54.4748
lwrist 5.6449
lhand -12.2142 -9.0423
lfingers 7.12502
lthumb 13.8505 20.4765
rfemur -64.3046 -9.21249 9.96771
rtibia 92.7398
rfoot -31.3107 -2.36009
rtoes -15.9014
lfemur -64.5204 -3.38779 -26.0811
ltibia 90.2877
lfoot -28.1325 -13.0188
ltoes -5.64175
121
root -0.0390269 13.7808 1.68374 184.586 -9.21823 -187.567
lowerback 81.3005 -8.40532 19.2454
upperback 9.89741 -2.75398 -2.22459
thorax -7.98933 -4.07682 -7.97256
lowerneck 3.0357 -8.64282 -1.38907
upperneck 6.51936 -11.9606 3.28781
head 1.84134 -5.94547 1.14734
rclavicle -7.95139e-014 -4.13472e-014
rhumerus 217.825 -164.976 -248.255
rradius 13.4377
rwrist 7.25757
rhand -25.5555 12.019
rfingers 7.12502
rthumb 0.975027 -17.9585
lclavicle -7.95139e-014 -4.13472e-014
lhumerus -24.915 -12.5233 92.0378
lradius 54.3977
lwrist 5.72926
lhand -12.1842 -9.1188
lfingers 7.12502
lthumb 13.8795 20.3981
rfemur -64.924 -9.43057 9.83011
rtibia 93.9234
rfoot -31.6231 -2.27017
rtoes -16.0879
lfemur -65.0727 -3.22332 -26.2735
ltibia 91.3699
lfoot -28.5285 -13.2116
ltoes -5.62402
